<svg viewBox="0 0 128 128" xmlns="http://www.w3.org/2000/svg" role="img" aria-label="gsh">
  <rect width="128" height="128" rx="28" fill="#0d1117"/>
  <g transform="translate(19.98,70.18) scale(0.02654,-0.02654)" fill="#e6edf3">
    <path transform="translate(0,0)" d="M901 838Q929 803 940.5 764.5Q952 726 952 686Q952 601 922.5 536.0Q893 471 839.5 427.0Q786 383 711.5 360.5Q637 338 547 338Q494 338 449.0 348.5Q404 359 381 373Q364 356 352.0 335.5Q340 315 340 289Q340 273 348.0 257.0Q356 241 371.5 228.5Q387 216 408.5 208.0Q430 200 457 199L698 190Q779 188 844.5 169.5Q910 151 957.0 117.0Q1004 83 1029.5 34.5Q1055 -14 1055 -76Q1055 -147 1023.0 -210.0Q991 -273 926.5 -319.5Q862 -366 766.0 -393.0Q670 -420 543 -420Q420 -420 331.5 -400.5Q243 -381 186.5 -346.0Q130 -311 103.0 -262.5Q76 -214 76 -156Q76 -121 85.0 -91.0Q94 -61 112.0 -33.5Q130 -6 157.0 20.0Q184 46 221 72Q172 100 146.5 144.0Q121 188 121 238Q121 272 130.0 301.5Q139 331 153.5 358.0Q168 385 187.0 410.0Q206 435 227 459Q190 496 165.5 548.5Q141 601 141 680Q141 765 171.5 831.5Q202 898 256.0 943.5Q310 989 384.5 1012.5Q459 1036 547 1036Q592 1036 633.5 1031.5Q675 1027 709 1016H1061V838ZM326 -135Q326 -194 385.5 -222.0Q445 -250 553 -250Q622 -250 669.5 -237.0Q717 -224 747.0 -203.0Q777 -182 790.0 -154.0Q803 -126 803 -96Q803 -69 790.5 -50.5Q778 -32 755.5 -19.5Q733 -7 702.5 -0.5Q672 6 635 8L420 12Q391 -8 372.5 -26.0Q354 -44 343.5 -61.5Q333 -79 329.5 -97.0Q326 -115 326 -135ZM367 680Q367 599 414.5 551.5Q462 504 547 504Q592 504 625.5 519.0Q659 534 681.0 559.0Q703 584 714.0 617.0Q725 650 725 686Q725 771 677.5 818.5Q630 866 545 866Q500 866 466.5 851.0Q433 836 411.0 810.5Q389 785 378.0 751.0Q367 717 367 680Z"/>
    <path transform="translate(1126,0)" d="M977 299Q977 212 938.5 150.5Q900 89 836.5 50.5Q773 12 692.5 -5.5Q612 -23 528 -23Q416 -23 326.0 -12.5Q236 -2 156 18V238Q250 199 343.5 181.5Q437 164 520 164Q616 164 663.5 194.5Q711 225 711 274Q711 297 701.0 316.0Q691 335 663.5 352.5Q636 370 586.0 388.5Q536 407 455 430Q380 451 323.5 477.5Q267 504 230.0 540.0Q193 576 174.5 623.5Q156 671 156 735Q156 797 184.0 852.0Q212 907 267.5 948.5Q323 990 406.0 1014.0Q489 1038 600 1038Q696 1038 770.0 1028.0Q844 1018 901 1006V807Q814 835 737.5 846.5Q661 858 586 858Q511 858 465.5 831.0Q420 804 420 756Q420 733 429.0 715.0Q438 697 464.5 680.0Q491 663 538.5 644.5Q586 626 664 604Q752 579 812.0 550.5Q872 522 908.5 486.0Q945 450 961.0 404.0Q977 358 977 299Z"/>
    <path transform="translate(2252,0)" d="M745 0V662Q745 829 621 829Q559 829 502.5 779.0Q446 729 383 643V0H139V1413H383V1065L371 881Q402 918 434.0 947.5Q466 977 503.0 997.0Q540 1017 583.0 1027.5Q626 1038 678 1038Q756 1038 814.0 1012.5Q872 987 911.0 940.5Q950 894 969.5 828.5Q989 763 989 682V0Z"/>
  </g>
  <rect x="22.00" y="96" width="84.00" height="6" rx="3" fill="#3ddc84"/>
</svg>
